<svg xmlns="http://www.w3.org/2000/svg" width="16" height="16" viewBox="0 0 16 16"><path fill="#485566" d="M6 2h4v1H6ZM2 5h3v1H2Zm9 0h3v1h-3v1h2v1h-1v1h-1V7h-1V6h1ZM2 7h2v1H2Zm7 0h1v1H9Zm4 1h1v5h-1v1H9v-1h1v-1h1v-1h1v2h1Zm-3 1h1v2h-1Zm-8 4h1v1H2Z"/><path fill="#2c2735" d="M10 2h1v1h-1ZM5 3h1v1H5Zm7 0h2v1h1v2h-1V4h-2ZM2 4h1v1H2ZM1 5h1v2H1Zm5 1h4v1H6ZM4 7h1v1H4Zm6 0h1v2h1v2h-1V9h-1Zm4 0h1v7h-1v1H2v-1h3v-1h4v1h5ZM1 8h1v5H1Zm2 1h1v3h1v1H4v-1H3Zm7 2h1v1h-1Zm-1 1h1v1H9Z"/><path fill="#5b6e80" d="M3 3h2v1H3Zm3 2h4v1H6Zm-1 6h1v1H5Z"/><path fill="#f3ddc8" d="M6 3h4v2H6ZM3 4h1v1H3Zm9 0h1v1h-1ZM2 6h2v1H2Zm9 0h2v1h-2ZM8 7h1v1h1v1H9V8H8Zm-1 3h1v1H7Z"/><path fill="#8eb6cd" d="M10 3h1v1h1v1h-1v1h-1ZM4 4h1v1H4Zm9 0h1v1h-1ZM4 6h1v1h3v1H5V7H4Zm9 0h2v1h-2ZM4 8h1v1H4Zm5 1h1v2H9Z"/><path fill="#2d465a" d="M11 3h1v1h-1ZM5 4h1v3H5Zm1 4h2v1H6v2H5V9h1Zm2 1h1v3H8Zm-2 2h1v1H6Zm7 2h1v1h-1Z"/><path fill="#26202f" d="M1 7h1v1H1Zm12 0h1v1h-1ZM6 9h2v1H7v1h1v1H7v-1H6Zm-5 4h1v1H1Z"/><path fill="#726b67" d="M2 8h2v1H3v3h1v1h1v1H3v-1H2Zm10 0h1v5h-1Z"/><path fill="#608eb5" d="M5 8h1v1H5v3h4v-1h1v1H9v1H5v-1H4V9h1Zm3 0h1v1H8Z"/></svg>